<svg width="2034" height="1755" xmlns="http://www.w3.org/2000/svg" xmlns:xlink="http://www.w3.org/1999/xlink" xml:space="preserve" overflow="hidden"><g transform="translate(435 -302)"><g><text fill="#FFE047" fill-opacity="1" font-family="1,1_MSFontService,sans-serif" font-style="normal" font-variant="normal" font-weight="400" font-stretch="normal" font-size="404" text-anchor="start" direction="ltr" writing-mode="lr-tb" unicode-bidi="normal" text-decoration="none" transform="matrix(1 0 0 1 484.072 1255)">legant</text><text fill="#FFE047" fill-opacity="1" font-family="1,1_MSFontService,sans-serif" font-style="normal" font-variant="normal" font-weight="400" font-stretch="normal" font-size="404" text-anchor="start" direction="ltr" writing-mode="lr-tb" unicode-bidi="normal" text-decoration="none" transform="matrix(1 0 0 1 484.072 1553)">vent</text><g><g><g><g><path d="M207.936 29.2169C203.378 196.225 199.678 199.924 32.6701 204.483 199.678 209.045 203.378 212.745 207.936 379.753 212.498 212.745 216.198 209.045 383.206 204.483 216.198 199.924 212.498 196.225 207.936 29.2169" fill="#FFE047" fill-rule="nonzero" fill-opacity="1" transform="matrix(1 0 0 1.00068 1191.06 1096)"/></g><path d="M50.5487 234.077C49.2322 282.242 48.1656 283.309 0 284.622 48.1656 285.938 49.2322 287.005 50.5487 335.17 51.8617 287.005 52.9283 285.938 101.094 284.622 52.9283 283.309 51.8617 282.242 50.5487 234.077" fill="#FFE047" fill-rule="nonzero" fill-opacity="1" transform="matrix(1 0 0 1.00068 1191.06 1096)"/><g><path d="M328.123 153.586C330.123 80.4133 331.742 78.7906 404.914 76.7946 331.742 74.7952 330.123 73.176 328.123 0.00352011 326.124 73.176 324.505 74.7952 251.332 76.7946 324.505 78.7906 326.124 80.4133 328.123 153.586" fill="#FFE047" fill-rule="nonzero" fill-opacity="1" transform="matrix(1 0 0 1.00068 1191.06 1096)"/></g></g></g></g><text fill="#FFE047" fill-opacity="1" font-family="1,1_MSFontService,sans-serif" font-style="normal" font-variant="normal" font-weight="400" font-stretch="normal" font-size="834" text-anchor="start" direction="ltr" writing-mode="lr-tb" unicode-bidi="normal" text-decoration="none" transform="matrix(1 0 0 1 69.6667 1555)">E</text></g></g></svg>