<svg width="86" height="86" viewBox="0 0 86 86" fill="none" xmlns="http://www.w3.org/2000/svg">
<mask id="path-1-inside-1_2721_3471" fill="white">
<path d="M84.164 29.8864L76.4068 22.1291C75.781 21.5117 74.9465 21.1512 74.0679 21.1187C73.1894 21.0861 72.3305 21.3839 71.6607 21.9534C70.6266 22.8336 69.2996 23.2931 67.9426 23.2411C66.5856 23.189 65.2977 22.629 64.3342 21.6721C63.3778 20.7086 62.8181 19.4211 62.766 18.0645C62.7139 16.7079 63.1732 15.3813 64.0529 14.3473C64.6224 13.6775 64.9202 12.8186 64.8876 11.9401C64.8551 11.0615 64.4946 10.2271 63.8771 9.60121L56.1129 1.8352C55.4567 1.18031 54.5676 0.8125 53.6405 0.8125C52.7135 0.8125 51.8243 1.18031 51.1682 1.8352L38.802 14.1996C38.0385 14.9659 37.4627 15.8984 37.1197 16.9243C37.053 17.1215 36.9416 17.3007 36.7944 17.4479C36.6471 17.5952 36.4679 17.7065 36.2707 17.7733C35.2445 18.1162 34.3118 18.6927 33.5461 19.4573L1.8352 51.1682C1.18031 51.8243 0.8125 52.7135 0.8125 53.6406C0.8125 54.5676 1.18031 55.4568 1.8352 56.1129L9.60121 63.8701C10.2271 64.4876 11.0615 64.8481 11.9401 64.8806C12.8186 64.9132 13.6775 64.6154 14.3473 64.0459C15.3789 63.1586 16.7078 62.6939 18.0676 62.745C19.4273 62.796 20.7176 63.3591 21.6798 64.3213C22.642 65.2834 23.205 66.5737 23.2561 67.9335C23.3071 69.2933 22.8424 70.6221 21.9551 71.6537C21.3857 72.3235 21.0879 73.1824 21.1204 74.061C21.1529 74.9395 21.5135 75.774 22.1309 76.3998L29.8881 84.1571C30.5443 84.8119 31.4334 85.1797 32.3605 85.1797C33.2875 85.1797 34.1767 84.8119 34.8328 84.1571L66.5437 52.4461C67.3079 51.6808 67.8843 50.7488 68.2277 49.7233C68.2942 49.5254 68.4056 49.3456 68.5532 49.198C68.7008 49.0504 68.8806 48.939 69.0785 48.8725C70.1038 48.5294 71.0358 47.9537 71.8014 47.1903L84.1658 34.8241C84.8183 34.168 85.1844 33.2802 85.1841 32.3548C85.1838 31.4295 84.817 30.542 84.164 29.8864ZM44.0209 24.6744C43.7597 24.9357 43.4497 25.1429 43.1084 25.2843C42.7671 25.4257 42.4013 25.4984 42.0319 25.4984C41.6625 25.4984 41.2968 25.4257 40.9555 25.2843C40.6142 25.1429 40.3042 24.9357 40.043 24.6744L38.0197 22.6512C37.5051 22.1211 37.2198 21.4098 37.2253 20.671C37.2309 19.9322 37.5269 19.2253 38.0495 18.703C38.572 18.1807 39.279 17.885 40.0178 17.8798C40.7566 17.8745 41.4678 18.1602 41.9977 18.675L44.0209 20.6965C44.2821 20.9577 44.4894 21.2678 44.6307 21.609C44.7721 21.9503 44.8449 22.3161 44.8449 22.6855C44.8449 23.0549 44.7721 23.4207 44.6307 23.7619C44.4894 24.1032 44.2821 24.4133 44.0209 24.6744ZM51.7553 32.4088C51.2279 32.9359 50.5128 33.2319 49.7672 33.2319C49.0216 33.2319 48.3065 32.9359 47.7791 32.4088L45.8455 30.4752C45.5843 30.214 45.3771 29.904 45.2358 29.5627C45.0944 29.2214 45.0217 28.8556 45.0217 28.4863C45.0217 28.1169 45.0944 27.7511 45.2358 27.4098C45.3771 27.0686 45.5843 26.7585 45.8455 26.4973C46.373 25.9698 47.0885 25.6734 47.8345 25.6734C48.2039 25.6734 48.5696 25.7462 48.9109 25.8876C49.2522 26.0289 49.5622 26.2361 49.8234 26.4973L51.757 28.4309C52.0192 28.692 52.2272 29.0024 52.3692 29.3441C52.5112 29.6858 52.5844 30.0521 52.5845 30.4221C52.5847 30.7922 52.5119 31.1586 52.3702 31.5004C52.2285 31.8422 52.0207 32.1527 51.7588 32.4141L51.7553 32.4088ZM59.4896 40.1432C59.2285 40.4044 58.9184 40.6117 58.5771 40.753C58.2359 40.8944 57.8701 40.9672 57.5007 40.9672C57.1313 40.9672 56.7655 40.8944 56.4242 40.753C56.083 40.6117 55.7729 40.4044 55.5117 40.1432L53.5781 38.2096C53.0635 37.6795 52.7782 36.9682 52.7837 36.2294C52.7893 35.4906 53.0853 34.7837 53.6078 34.2614C54.1304 33.7391 54.8374 33.4434 55.5762 33.4382C56.315 33.4329 57.0262 33.7186 57.5561 34.2334L59.4896 36.167C59.7525 36.4277 59.9613 36.7378 60.1041 37.0794C60.2468 37.421 60.3207 37.7874 60.3216 38.1577C60.3224 38.5279 60.2501 38.8947 60.1088 39.2369C59.9676 39.5791 59.7601 39.8901 59.4984 40.152L59.4896 40.1432ZM67.2996 47.9725C67.0384 48.2337 66.7283 48.4409 66.3871 48.5823C66.0458 48.7237 65.68 48.7965 65.3106 48.7965C64.9412 48.7965 64.5755 48.7237 64.2342 48.5823C63.8929 48.4409 63.5828 48.2337 63.3217 47.9725L61.3107 45.951C61.044 45.6906 60.8317 45.3798 60.6862 45.0366C60.5407 44.6934 60.4648 44.3248 60.463 43.952C60.4613 43.5793 60.5336 43.2099 60.6758 42.8653C60.8181 42.5208 61.0274 42.208 61.2916 41.945C61.5558 41.6821 61.8697 41.4743 62.2149 41.3337C62.5601 41.1932 62.9299 41.1226 63.3026 41.1262C63.6753 41.1298 64.0437 41.2075 64.3861 41.3547C64.7286 41.5018 65.0384 41.7156 65.2975 41.9836L67.3101 44.0033C67.5713 44.2646 67.7784 44.5748 67.9196 44.9161C68.0608 45.2575 68.1334 45.6233 68.1333 45.9927C68.1331 46.3621 68.0602 46.7278 67.9186 47.069C67.7771 47.4102 67.5697 47.7202 67.3084 47.9813L67.2996 47.9725Z"/>
</mask>
<path d="M84.164 29.8864L76.4068 22.1291C75.781 21.5117 74.9465 21.1512 74.0679 21.1187C73.1894 21.0861 72.3305 21.3839 71.6607 21.9534C70.6266 22.8336 69.2996 23.2931 67.9426 23.2411C66.5856 23.189 65.2977 22.629 64.3342 21.6721C63.3778 20.7086 62.8181 19.4211 62.766 18.0645C62.7139 16.7079 63.1732 15.3813 64.0529 14.3473C64.6224 13.6775 64.9202 12.8186 64.8876 11.9401C64.8551 11.0615 64.4946 10.2271 63.8771 9.60121L56.1129 1.8352C55.4567 1.18031 54.5676 0.8125 53.6405 0.8125C52.7135 0.8125 51.8243 1.18031 51.1682 1.8352L38.802 14.1996C38.0385 14.9659 37.4627 15.8984 37.1197 16.9243C37.053 17.1215 36.9416 17.3007 36.7944 17.4479C36.6471 17.5952 36.4679 17.7065 36.2707 17.7733C35.2445 18.1162 34.3118 18.6927 33.5461 19.4573L1.8352 51.1682C1.18031 51.8243 0.8125 52.7135 0.8125 53.6406C0.8125 54.5676 1.18031 55.4568 1.8352 56.1129L9.60121 63.8701C10.2271 64.4876 11.0615 64.8481 11.9401 64.8806C12.8186 64.9132 13.6775 64.6154 14.3473 64.0459C15.3789 63.1586 16.7078 62.6939 18.0676 62.745C19.4273 62.796 20.7176 63.3591 21.6798 64.3213C22.642 65.2834 23.205 66.5737 23.2561 67.9335C23.3071 69.2933 22.8424 70.6221 21.9551 71.6537C21.3857 72.3235 21.0879 73.1824 21.1204 74.061C21.1529 74.9395 21.5135 75.774 22.1309 76.3998L29.8881 84.1571C30.5443 84.8119 31.4334 85.1797 32.3605 85.1797C33.2875 85.1797 34.1767 84.8119 34.8328 84.1571L66.5437 52.4461C67.3079 51.6808 67.8843 50.7488 68.2277 49.7233C68.2942 49.5254 68.4056 49.3456 68.5532 49.198C68.7008 49.0504 68.8806 48.939 69.0785 48.8725C70.1038 48.5294 71.0358 47.9537 71.8014 47.1903L84.1658 34.8241C84.8183 34.168 85.1844 33.2802 85.1841 32.3548C85.1838 31.4295 84.817 30.542 84.164 29.8864ZM44.0209 24.6744C43.7597 24.9357 43.4497 25.1429 43.1084 25.2843C42.7671 25.4257 42.4013 25.4984 42.0319 25.4984C41.6625 25.4984 41.2968 25.4257 40.9555 25.2843C40.6142 25.1429 40.3042 24.9357 40.043 24.6744L38.0197 22.6512C37.5051 22.1211 37.2198 21.4098 37.2253 20.671C37.2309 19.9322 37.5269 19.2253 38.0495 18.703C38.572 18.1807 39.279 17.885 40.0178 17.8798C40.7566 17.8745 41.4678 18.1602 41.9977 18.675L44.0209 20.6965C44.2821 20.9577 44.4894 21.2678 44.6307 21.609C44.7721 21.9503 44.8449 22.3161 44.8449 22.6855C44.8449 23.0549 44.7721 23.4207 44.6307 23.7619C44.4894 24.1032 44.2821 24.4133 44.0209 24.6744ZM51.7553 32.4088C51.2279 32.9359 50.5128 33.2319 49.7672 33.2319C49.0216 33.2319 48.3065 32.9359 47.7791 32.4088L45.8455 30.4752C45.5843 30.214 45.3771 29.904 45.2358 29.5627C45.0944 29.2214 45.0217 28.8556 45.0217 28.4863C45.0217 28.1169 45.0944 27.7511 45.2358 27.4098C45.3771 27.0686 45.5843 26.7585 45.8455 26.4973C46.373 25.9698 47.0885 25.6734 47.8345 25.6734C48.2039 25.6734 48.5696 25.7462 48.9109 25.8876C49.2522 26.0289 49.5622 26.2361 49.8234 26.4973L51.757 28.4309C52.0192 28.692 52.2272 29.0024 52.3692 29.3441C52.5112 29.6858 52.5844 30.0521 52.5845 30.4221C52.5847 30.7922 52.5119 31.1586 52.3702 31.5004C52.2285 31.8422 52.0207 32.1527 51.7588 32.4141L51.7553 32.4088ZM59.4896 40.1432C59.2285 40.4044 58.9184 40.6117 58.5771 40.753C58.2359 40.8944 57.8701 40.9672 57.5007 40.9672C57.1313 40.9672 56.7655 40.8944 56.4242 40.753C56.083 40.6117 55.7729 40.4044 55.5117 40.1432L53.5781 38.2096C53.0635 37.6795 52.7782 36.9682 52.7837 36.2294C52.7893 35.4906 53.0853 34.7837 53.6078 34.2614C54.1304 33.7391 54.8374 33.4434 55.5762 33.4382C56.315 33.4329 57.0262 33.7186 57.5561 34.2334L59.4896 36.167C59.7525 36.4277 59.9613 36.7378 60.1041 37.0794C60.2468 37.421 60.3207 37.7874 60.3216 38.1577C60.3224 38.5279 60.2501 38.8947 60.1088 39.2369C59.9676 39.5791 59.7601 39.8901 59.4984 40.152L59.4896 40.1432ZM67.2996 47.9725C67.0384 48.2337 66.7283 48.4409 66.3871 48.5823C66.0458 48.7237 65.68 48.7965 65.3106 48.7965C64.9412 48.7965 64.5755 48.7237 64.2342 48.5823C63.8929 48.4409 63.5828 48.2337 63.3217 47.9725L61.3107 45.951C61.044 45.6906 60.8317 45.3798 60.6862 45.0366C60.5407 44.6934 60.4648 44.3248 60.463 43.952C60.4613 43.5793 60.5336 43.2099 60.6758 42.8653C60.8181 42.5208 61.0274 42.208 61.2916 41.945C61.5558 41.6821 61.8697 41.4743 62.2149 41.3337C62.5601 41.1932 62.9299 41.1226 63.3026 41.1262C63.6753 41.1298 64.0437 41.2075 64.3861 41.3547C64.7286 41.5018 65.0384 41.7156 65.2975 41.9836L67.3101 44.0033C67.5713 44.2646 67.7784 44.5748 67.9196 44.9161C68.0608 45.2575 68.1334 45.6233 68.1333 45.9927C68.1331 46.3621 68.0602 46.7278 67.9186 47.069C67.7771 47.4102 67.5697 47.7202 67.3084 47.9813L67.2996 47.9725Z" stroke="#2B293D" stroke-width="8" mask="url(#path-1-inside-1_2721_3471)"/>
</svg>
